<?xml version="1.0" encoding="UTF-8" standalone="no"?>
<!DOCTYPE svg PUBLIC "-//W3C//DTD SVG 1.1//EN" "http://www.w3.org/Graphics/SVG/1.1/DTD/svg11.dtd">
<svg width="100%" height="100%" viewBox="0 0 512 480" version="1.1" xmlns="http://www.w3.org/2000/svg" xmlns:xlink="http://www.w3.org/1999/xlink" xml:space="preserve" xmlns:serif="http://www.serif.com/" style="fill-rule:evenodd;clip-rule:evenodd;stroke-linejoin:round;stroke-miterlimit:2;">
    <path d="M184,48L328,48C332.4,48 336,51.6 336,56L336,96L176,96L176,56C176,51.6 179.6,48 184,48ZM128,56L128,96L64,96C28.7,96 0,124.7 0,160L0,256L512,256L512,160C512,124.7 483.3,96 448,96L384,96L384,56C384,25.1 358.9,0 328,0L184,0C153.1,0 128,25.1 128,56ZM512,288L320,288L320,320C320,337.7 305.7,352 288,352L224,352C206.3,352 192,337.7 192,320L192,288L0,288L0,416C0,451.3 28.7,480 64,480L448,480C483.3,480 512,451.3 512,416L512,288Z" style="fill:white;fill-rule:nonzero;"/>
</svg>
