<?xml version="1.0" encoding="UTF-8" standalone="no"?>
<!DOCTYPE svg PUBLIC "-//W3C//DTD SVG 1.1//EN" "http://www.w3.org/Graphics/SVG/1.1/DTD/svg11.dtd">
<svg width="100%" height="100%" viewBox="0 0 576 512" version="1.1" xmlns="http://www.w3.org/2000/svg" xmlns:xlink="http://www.w3.org/1999/xlink" xml:space="preserve" xmlns:serif="http://www.serif.com/" style="fill-rule:evenodd;clip-rule:evenodd;stroke-linejoin:round;stroke-miterlimit:2;">
    <path d="M575.8,255.5C575.8,273.5 560.8,287.6 543.8,287.6L511.8,287.6L512.5,447.8C512.5,450.5 512.3,453.2 512,455.9L512,472C512,494.1 494.1,512 472,512L456,512C454.9,512 453.8,512 452.7,511.9C451.3,512 449.9,512 448.5,512L392,512C369.9,512 352,494.1 352,472L352,384C352,366.3 337.7,352 320,352L256,352C238.3,352 224,366.3 224,384L224,472C224,494.1 206.1,512 184,512L128.1,512C126.6,512 125.1,511.9 123.6,511.8C122.4,511.9 121.2,512 120,512L104,512C81.9,512 64,494.1 64,472L64,360C64,359.1 64,358.1 64.1,357.2L64.1,287.6L32,287.6C14,287.6 0,273.6 0,255.5C0,246.5 3,238.5 10,231.5L266.4,8C273.4,1 281.4,0 288.4,0C295.4,0 303.4,2 309.4,7L564.8,231.5C572.8,238.5 576.8,246.5 575.8,255.5Z" style="fill:white;fill-rule:nonzero;"/>
</svg>
