<?xml version="1.0" encoding="UTF-8" standalone="no"?>
<!DOCTYPE svg PUBLIC "-//W3C//DTD SVG 1.1//EN" "http://www.w3.org/Graphics/SVG/1.1/DTD/svg11.dtd">
<svg width="100%" height="100%" viewBox="0 0 480 512" version="1.1" xmlns="http://www.w3.org/2000/svg" xmlns:xlink="http://www.w3.org/1999/xlink" xml:space="preserve" xmlns:serif="http://www.serif.com/" style="fill-rule:evenodd;clip-rule:evenodd;stroke-linejoin:round;stroke-miterlimit:2;">
    <g transform="matrix(1,0,0,1,-32,0)">
        <path d="M96,0C60.7,0 32,28.7 32,64L32,448C32,483.3 60.7,512 96,512L384,512C419.3,512 448,483.3 448,448L448,64C448,28.7 419.3,0 384,0L96,0ZM208,288L272,288C316.2,288 352,323.8 352,368C352,376.8 344.8,384 336,384L144,384C135.2,384 128,376.8 128,368C128,323.8 163.8,288 208,288ZM176,192C176,156.891 204.891,128 240,128C275.109,128 304,156.891 304,192C304,227.109 275.109,256 240,256C204.891,256 176,227.109 176,192ZM512,80C512,71.2 504.8,64 496,64C487.2,64 480,71.2 480,80L480,144C480,152.8 487.2,160 496,160C504.8,160 512,152.8 512,144L512,80ZM496,192C487.2,192 480,199.2 480,208L480,272C480,280.8 487.2,288 496,288C504.8,288 512,280.8 512,272L512,208C512,199.2 504.8,192 496,192ZM512,336C512,327.2 504.8,320 496,320C487.2,320 480,327.2 480,336L480,400C480,408.8 487.2,416 496,416C504.8,416 512,408.8 512,400L512,336Z" style="fill:white;fill-rule:nonzero;"/>
    </g>
</svg>
